<svg xmlns="http://www.w3.org/2000/svg" width="20" height="20" viewBox="0 0 20 20">
    <g fill="none" fill-rule="evenodd">
        <g>
            <g>
                <g>
                    <g>
                        <g>
                            <path fill="#3C5690" d="M20 10c0 5.523-4.477 10-10 10S0 15.523 0 10 4.477 0 10 0s10 4.477 10 10" transform="translate(-940.000000, -2890.000000) translate(0.000000, 2790.000000) translate(120.000000, 36.000000) translate(820.000000, 0.000000) translate(0.000000, 64.000000)"/>
                            <path fill="#FFF" d="M10.823 15.313v-4.847h1.627l.243-1.89h-1.87V7.372c0-.547.152-.92.936-.92h1v-1.69c-.173-.022-.767-.074-1.457-.074-1.443 0-2.43.88-2.43 2.497v1.393H7.241v1.89h1.631v4.846h1.95z" transform="translate(-940.000000, -2890.000000) translate(0.000000, 2790.000000) translate(120.000000, 36.000000) translate(820.000000, 0.000000) translate(0.000000, 64.000000)"/>
                        </g>
                    </g>
                </g>
            </g>
        </g>
    </g>
</svg>
