<svg xmlns="http://www.w3.org/2000/svg" width="20" height="20" viewBox="0 0 20 20">
    <g fill="none" fill-rule="evenodd">
        <g>
            <g>
                <g>
                    <g>
                        <g>
                            <path fill="#E73322" d="M20 10c0 5.523-4.477 10-10 10S0 15.523 0 10 4.477 0 10 0s10 4.477 10 10" transform="translate(-940.000000, -2946.000000) translate(0.000000, 2790.000000) translate(120.000000, 36.000000) translate(820.000000, 0.000000) translate(0.000000, 120.000000)"/>
                            <path fill="#FFF" d="M8.767 11.55V8.192l3.227 1.684-3.227 1.672zm7.085-3.938s-.117-.823-.475-1.185c-.454-.476-.963-.478-1.196-.506C12.51 5.8 10.003 5.8 10.003 5.8h-.006s-2.507 0-4.178.12c-.233.029-.742.031-1.196.507-.359.362-.475 1.185-.475 1.185s-.12.966-.12 1.933v.906c0 .966.12 1.933.12 1.933s.116.823.475 1.185c.454.476 1.05.461 1.316.511.956.092 4.061.12 4.061.12s2.51-.004 4.18-.125c.234-.027.743-.03 1.197-.506.358-.362.475-1.185.475-1.185s.12-.967.12-1.933v-.906c0-.967-.12-1.933-.12-1.933z" transform="translate(-940.000000, -2946.000000) translate(0.000000, 2790.000000) translate(120.000000, 36.000000) translate(820.000000, 0.000000) translate(0.000000, 120.000000)"/>
                        </g>
                    </g>
                </g>
            </g>
        </g>
    </g>
</svg>
