<svg xmlns="http://www.w3.org/2000/svg" width="20" height="20" viewBox="0 0 20 20">
    <g fill="none" fill-rule="evenodd">
        <g>
            <g>
                <g>
                    <g>
                        <g>
                            <path fill="#39AD36" d="M20 10c0 5.523-4.477 10-10 10S0 15.523 0 10 4.477 0 10 0s10 4.477 10 10" transform="translate(-940.000000, -2862.000000) translate(0.000000, 2790.000000) translate(120.000000, 36.000000) translate(820.000000, 0.000000) translate(0.000000, 36.000000)"/>
                            <path fill="#FFF" d="M13.907 8.863c.184 0 .334.15.334.334 0 .183-.15.333-.334.333h-.93v.597h.93c.183 0 .334.15.334.333 0 .185-.15.335-.334.335h-1.265c-.184 0-.333-.15-.333-.335V7.932c0-.184.15-.334.333-.334h1.265c.184 0 .334.15.334.334 0 .184-.15.334-.334.334h-.93v.597h.93zM11.86 10.46c0 .144-.092.272-.228.317-.035.012-.07.018-.106.018-.104 0-.204-.05-.267-.134L9.964 8.896v1.564c0 .185-.15.335-.334.335-.184 0-.333-.15-.333-.335V7.932c0-.144.092-.271.228-.317.034-.011.07-.017.106-.017.104 0 .204.05.266.134l1.296 1.764V7.932c0-.184.15-.334.334-.334.184 0 .334.15.334.334v2.528zm-3.044 0c0 .185-.15.335-.334.335-.184 0-.333-.15-.333-.335V7.932c0-.184.15-.334.333-.334.184 0 .334.15.334.334v2.528zm-1.308.335H6.244c-.183 0-.333-.15-.333-.335V7.932c0-.184.15-.334.333-.334.185 0 .334.15.334.334v2.195h.931c.184 0 .333.15.333.333 0 .185-.149.335-.333.335zM16.364 9.1c0-2.847-2.854-5.164-6.364-5.164-3.509 0-6.364 2.317-6.364 5.164 0 2.553 2.264 4.692 5.322 5.096.208.044.49.138.561.314.065.16.042.413.02.575l-.09.545c-.028.16-.128.63.551.343.68-.286 3.665-2.158 5-3.695.923-1.011 1.364-2.038 1.364-3.178z" transform="translate(-940.000000, -2862.000000) translate(0.000000, 2790.000000) translate(120.000000, 36.000000) translate(820.000000, 0.000000) translate(0.000000, 36.000000)"/>
                        </g>
                    </g>
                </g>
            </g>
        </g>
    </g>
</svg>
